<svg version="1" xmlns="http://www.w3.org/2000/svg" width="666.667" height="666.667" viewBox="0 0 500.000000 500.000000"><path d="M127.7 127.8C61.3 194.2 7 249.2 7 250c0 2.2 241.1 243 243.3 243 1 0 52.4-50.5 122.3-120.2C468.4 277.2 493.1 252 493.1 250s-24.7-27.2-120.5-122.8C302.6 57.4 251.3 7 250.3 7c-1.1 0-52.3 50.5-122.6 120.8zm133.1-97.5L271 40.5 167.5 144C85.4 226.1 64 248 64 250s21.4 23.9 103.5 106L271 459.5 260.5 470 250 480.5 134.7 365.2 19.5 250l115-115C197.7 71.8 249.7 20 250 20c.3 0 5.1 4.6 10.8 10.3zm104.9 103.9c47.5 47.5 86.3 86.7 86.3 87.3 0 .6-38.9 39.9-86.5 87.5L279 395.5l-11-11-11-11 75-75c49.2-49.2 75-75.7 75-77 0-1.3-25.9-27.9-75.2-77.2L256.5 69 267 58.5c5.8-5.8 10.9-10.5 11.5-10.5.5 0 39.8 38.8 87.2 86.2zm-43 14c39.8 39.8 72.3 72.7 72.3 73.3 0 .6-32.6 33.6-72.5 73.5L250 367.5 177.5 295c-39.9-39.9-72.5-72.9-72.5-73.5 0-1 144-145.5 145-145.5.3 0 33 32.5 72.7 72.2zM278.8 407c2.2 0 17.5-14.8 91.9-89.2l89.3-89.3 10.7 10.8 10.8 10.7-101.3 101.3L279 452.5 177.8 351.3 76.5 250l10.4-10.4 10.5-10.5 89.3 89c74.4 74 89.8 88.9 92.1 88.9z"/></svg>